<svg width="26" height="31" viewBox="0 0 26 31" fill="none" xmlns="http://www.w3.org/2000/svg">
<path d="M24 14.6576L13.5989 26.6966C12.3247 28.1714 10.5965 29 8.79448 29C6.99247 29 5.26427 28.1714 3.99006 26.6966C2.71584 25.2217 2 23.2214 2 21.1356C2 19.0498 2.71584 17.0495 3.99006 15.5746L14.3912 3.53562C15.2406 2.55238 16.3928 2 17.5941 2C18.7954 2 19.9476 2.55238 20.7971 3.53562C21.6465 4.51887 22.1238 5.85243 22.1238 7.24295C22.1238 8.63346 21.6465 9.96703 20.7971 10.9503L10.3846 22.9892C9.9599 23.4809 9.38383 23.7571 8.78316 23.7571C8.18249 23.7571 7.60643 23.4809 7.18169 22.9892C6.75695 22.4976 6.51834 21.8308 6.51834 21.1356C6.51834 20.4403 6.75695 19.7735 7.18169 19.2819L16.7905 8.17305" stroke="white" stroke-width="3" stroke-linecap="round" stroke-linejoin="round"/>
</svg>
